<svg id="Layer_1" data-name="Layer 1" xmlns="http://www.w3.org/2000/svg" viewBox="0 0 753.071 553.342">
  <path d="M679.629,552.743a64.35,64.35,0,0,0,60.607-42.338c19.849-55.056,25.916-145.7-51.629-256.247C603.006,132.128,609.747,14.716,489.3,1.8,300.6-18.444,182.6,137.505,116.22,210.875,9.478,328.856,10.684,411.6.431,492.527a53.565,53.565,0,0,0,53.193,60.216Z" fill="#f3f5fd"></path>
  <g>
    <g>
      <rect x="55.282" y="320.211" width="52.922" height="233.132" fill="#c1d8ed"></rect>
      <rect x="96.172" y="320.211" width="185.149" height="233.132" transform="translate(377.494 873.553) rotate(-180)" fill="#dee8f5"></rect>
      <g opacity="0.36">
        <rect x="103.99" y="328.192" width="169.513" height="67.345" transform="translate(377.494 723.73) rotate(-180)" fill="#fff"></rect>
      </g>
      <g opacity="0.36">
        <rect x="103.99" y="403.214" width="169.513" height="67.345" transform="translate(377.494 873.774) rotate(-180)" fill="#fff"></rect>
      </g>
      <g opacity="0.36">
        <rect x="103.99" y="478.236" width="169.513" height="67.345" transform="translate(377.494 1023.817) rotate(-180)" fill="#fff"></rect>
      </g>
      <g>
        <g>
          <rect x="114.205" y="367.06" width="18" height="28.478" fill="#c1d8ed"></rect>
          <rect x="114.205" y="359.941" width="18" height="7.119" transform="translate(246.41 727.001) rotate(180)" fill="#fff"></rect>
          <rect x="116.22" y="378.869" width="13.97" height="11.552" fill="#fff"></rect>
        </g>
        <g>
          <rect x="136.705" y="367.06" width="18" height="28.478" fill="#c1d8ed"></rect>
          <rect x="136.705" y="359.941" width="18" height="7.119" transform="translate(291.41 727.001) rotate(180)" fill="#fff"></rect>
          <rect x="138.72" y="378.869" width="13.97" height="11.552" fill="#fff"></rect>
        </g>
        <g>
          <rect x="159.205" y="367.06" width="18" height="28.478" fill="#c1d8ed"></rect>
          <rect x="159.205" y="359.941" width="18" height="7.119" transform="translate(336.41 727.001) rotate(180)" fill="#fff"></rect>
          <rect x="161.22" y="378.869" width="13.97" height="11.552" fill="#fff"></rect>
        </g>
      </g>
      <g>
        <g>
          <rect x="113.205" y="442.082" width="18" height="28.478" fill="#c1d8ed"></rect>
          <rect x="113.205" y="434.963" width="18" height="7.119" transform="translate(244.41 877.044) rotate(180)" fill="#fff"></rect>
          <rect x="115.22" y="453.891" width="13.97" height="11.552" fill="#fff"></rect>
        </g>
        <g>
          <rect x="135.705" y="442.082" width="18" height="28.478" fill="#c1d8ed"></rect>
          <rect x="135.705" y="434.963" width="18" height="7.119" transform="translate(289.41 877.044) rotate(180)" fill="#fff"></rect>
          <rect x="137.72" y="453.891" width="13.97" height="11.552" fill="#fff"></rect>
        </g>
        <g>
          <rect x="158.205" y="442.082" width="18" height="28.478" fill="#c1d8ed"></rect>
          <rect x="158.205" y="434.963" width="18" height="7.119" transform="translate(334.41 877.044) rotate(180)" fill="#fff"></rect>
          <rect x="160.22" y="453.891" width="13.97" height="11.552" fill="#fff"></rect>
        </g>
      </g>
      <g>
        <g>
          <rect x="198.776" y="442.082" width="18" height="28.478" fill="#c1d8ed"></rect>
          <rect x="198.776" y="434.963" width="18" height="7.119" transform="translate(415.553 877.044) rotate(180)" fill="#fff"></rect>
          <rect x="200.791" y="453.891" width="13.97" height="11.552" fill="#fff"></rect>
        </g>
        <g>
          <rect x="221.276" y="442.082" width="18" height="28.478" fill="#c1d8ed"></rect>
          <rect x="221.276" y="434.963" width="18" height="7.119" transform="translate(460.553 877.044) rotate(180)" fill="#fff"></rect>
          <rect x="223.291" y="453.891" width="13.97" height="11.552" fill="#fff"></rect>
        </g>
        <g>
          <rect x="243.776" y="442.082" width="18" height="28.478" fill="#c1d8ed"></rect>
          <rect x="243.776" y="434.963" width="18" height="7.119" transform="translate(505.553 877.044) rotate(180)" fill="#fff"></rect>
          <rect x="245.791" y="453.891" width="13.97" height="11.552" fill="#fff"></rect>
        </g>
      </g>
      <g>
        <g>
          <rect x="199.776" y="517.104" width="18" height="28.478" fill="#c1d8ed"></rect>
          <rect x="199.776" y="509.984" width="18" height="7.119" transform="translate(417.553 1027.088) rotate(180)" fill="#fff"></rect>
          <rect x="201.791" y="528.913" width="13.97" height="11.552" fill="#fff"></rect>
        </g>
        <g>
          <rect x="222.276" y="517.104" width="18" height="28.478" fill="#c1d8ed"></rect>
          <rect x="222.276" y="509.984" width="18" height="7.119" transform="translate(462.553 1027.088) rotate(180)" fill="#fff"></rect>
          <rect x="224.291" y="528.913" width="13.97" height="11.552" fill="#fff"></rect>
        </g>
        <g>
          <rect x="244.776" y="517.104" width="18" height="28.478" fill="#c1d8ed"></rect>
          <rect x="244.776" y="509.984" width="18" height="7.119" transform="translate(507.553 1027.088) rotate(180)" fill="#fff"></rect>
          <rect x="246.791" y="528.913" width="13.97" height="11.552" fill="#fff"></rect>
        </g>
      </g>
      <g>
        <rect x="186.972" y="373.307" width="76.233" height="22.231" fill="#fff"></rect>
        <polygon points="233.021 383.382 226.129 383.382 226.129 376.49 224.048 376.49 224.048 383.382 217.156 383.382 217.156 385.463 224.048 385.463 224.048 392.354 226.129 392.354 226.129 385.463 233.021 385.463 233.021 383.382" fill="#c1d8ed"></polygon>
      </g>
      <g>
        <rect x="111.589" y="523.323" width="76.233" height="22.231" fill="#fff"></rect>
        <polygon points="157.638 533.398 150.746 533.398 150.746 526.507 148.665 526.507 148.665 533.398 141.773 533.398 141.773 535.48 148.665 535.48 148.665 542.371 150.746 542.371 150.746 535.48 157.638 535.48 157.638 533.398" fill="#c1d8ed"></polygon>
      </g>
    </g>
    <g>
      <rect x="247.487" y="300.93" width="0.194" height="19.552" transform="translate(73.056 667.603) rotate(-115.391)" fill="#2f3235"></rect>
      <g>
        <polygon points="249.239 306.989 268.689 298.659 271.336 297.532 273.234 302.108 270.593 303.244 251.195 311.544 249.239 306.989" fill="#fdb754"></polygon>
        <polygon points="256.396 304.511 271.642 297.981 273.717 297.097 275.205 300.684 273.135 301.575 257.929 308.081 256.396 304.511" fill="#fdb754"></polygon>
        <polygon points="272.369 303.494 269.922 297.139 271.275 296.622 273.715 302.966 272.369 303.494" fill="#fff"></polygon>
      </g>
      <rect x="249.604" y="306.491" width="0.941" height="6.065" transform="translate(422.467 -49.116) rotate(64.609)" fill="#fdb754"></rect>
    </g>
    <path d="M196.555,308.411l4.727,10.606a2.014,2.014,0,0,0,1.838,1.194h53.556a2.014,2.014,0,0,0,1.788-1.089l5.483-10.606a2.012,2.012,0,0,0-1.787-2.937H198.393A2.012,2.012,0,0,0,196.555,308.411Z" fill="#c1d8ed"></path>
  </g>
  <g>
    <rect x="262.079" y="525.327" width="24.804" height="21" transform="translate(-299.445 717.651) rotate(-80.454)" fill="#EDA59F"></rect>
    <path d="M238.349,552.557a4.108,4.108,0,0,1-4.076-4.427h0a4.108,4.108,0,0,1,2.658-3.53l24.443-8.186a3.461,3.461,0,0,1,2.872.319,19.1,19.1,0,0,0,11.468,3.4,17.038,17.038,0,0,0,8.821-3.222,1.546,1.546,0,0,1,2.527,1.2v11.952a2.678,2.678,0,0,1-2.689,2.678Z" fill="#c1d8ed"></path>
    <path d="M518.114,541.816l20.852-2.481c-.938-7.892-2-17.373-2.071-18.927,0,.1,0,.181,0,.245h-21C515.9,521.283,515.9,523.2,518.114,541.816Z" fill="#EDA59F"></path>
    <path d="M601.789,544.325l21-.068s-.07-21.684-.07-23.6h-21C601.719,522.578,601.789,544.325,601.789,544.325Z" fill="#EDA59F"></path>
    <path d="M576.261,552.448a4.108,4.108,0,0,1-4.077-4.427h0a4.109,4.109,0,0,1,2.659-3.529l24.442-8.187a3.463,3.463,0,0,1,2.873.32,19.112,19.112,0,0,0,11.468,3.4,17.027,17.027,0,0,0,8.82-3.223,1.547,1.547,0,0,1,2.527,1.2v11.952a2.678,2.678,0,0,1-2.689,2.678Z" fill="#c1d8ed"></path>
    <path d="M492.527,552.448a4.107,4.107,0,0,1-4.076-4.427h0a4.108,4.108,0,0,1,2.658-3.529l24.443-8.187a3.461,3.461,0,0,1,2.872.32,19.112,19.112,0,0,0,11.468,3.4,17.024,17.024,0,0,0,8.82-3.223,1.547,1.547,0,0,1,2.528,1.2v11.952a2.678,2.678,0,0,1-2.689,2.678Z" fill="#c1d8ed"></path>
    <g>
      <g>
        <path d="M440.248,405.614,469.872,550.1a3.491,3.491,0,0,0,3.386,2.64h0a3.49,3.49,0,0,0,3.385-4.34L446.6,402.245Z" fill="#c1d8ed"></path>
        <path d="M370.648,405.384,341.023,549.872a3.49,3.49,0,0,1-3.385,2.641h0a3.49,3.49,0,0,1-3.385-4.341L364.3,402.014Z" fill="#c1d8ed"></path>
      </g>
      <rect x="333.474" y="391.483" width="143.948" height="25.365" rx="6.037" transform="translate(810.896 808.33) rotate(-180)" fill="#dee8f5"></rect>
    </g>
    <g>
      <path d="M448.69,226.873s-7.733-4.1-6.006-25.157l-15.977-2.962s1.8,18.878-6.287,24.872Z" fill="#EDA59F"></path>
      <g opacity="0.15">
        <path d="M423.694,219.679l13.272-10.153-10.424-.108A28.756,28.756,0,0,1,423.694,219.679Z"></path>
      </g>
      <path d="M451.749,193.551c-1.106,6.389-4.593,12.438-10.228,14.5a40.485,40.485,0,0,1-19.357,2.615c-17.49-1.434-14.03-41.2-5.727-48.926s32.673-2.833,35.637,10.087C453.608,178.511,452.8,187.471,451.749,193.551Z" fill="#EDA59F"></path>
      <path d="M410.668,163.115a5.567,5.567,0,0,1,2.12-1.96c7.767-4.223,22.16-5.684,29.073-3.616,8.02,2.4,18.077,9.123,15.5,25.425-.109.687-.226,1.348-.347,2a14,14,0,1,1-9.9,20.562,24.792,24.792,0,0,1-3.838,2.724c-.957.568-1.189.1-1.521-.957-1.16-3.711-2.3-18.388-1.39-29.046l-18.846-.651-3.284-9.343-2.691,9.343h-6.418C408.264,172.531,407.377,166.792,410.668,163.115Z" fill="#0f1011"></path>
      <g>
        <circle cx="426.73" cy="187.181" r="1.449" fill="#0f1011"></circle>
        <circle cx="415.299" cy="186.244" r="1.449" fill="#0f1011"></circle>
        <path d="M412.788,183.156a.681.681,0,0,1-.008-1.361l3.838-.048a.7.7,0,0,1,.689.672.68.68,0,0,1-.672.689l-3.839.048Z" fill="#0f1011"></path>
        <path d="M429.857,184.555a.732.732,0,0,1-.159-.018l-3.785-.91a.681.681,0,0,1,.319-1.325l3.784.91a.681.681,0,0,1-.159,1.343Z" fill="#0f1011"></path>
      </g>
      <path d="M434.268,190.727a6.143,6.143,0,0,0,12.244,1,6.041,6.041,0,0,0-5.62-6.624C436.514,184.964,434.545,187.346,434.268,190.727Z" fill="#EDA59F"></path>
      <g opacity="0.15">
        <path d="M420.3,195.218a.5.5,0,0,0,.147-.978l-2.947-.9,2.061-4.592a.5.5,0,0,0-.912-.409l-2.293,5.108a.5.5,0,0,0,.309.682l3.488,1.071A.473.473,0,0,0,420.3,195.218Z"></path>
      </g>
      <path d="M426.06,198.593s-5.349.564-9.1-.746c0,0,.03,3.523,4.262,3.87S426.06,198.593,426.06,198.593Z" fill="#fff"></path>
    </g>
    <g>
      <path d="M576.991,139.758s-8.377-2.535-10.735-23.53l-16.247.167s5.394,18.18-1.384,25.617Z" fill="#EDA59F"></path>
      <g opacity="0.15">
        <path d="M551.078,137.509l11.07-12.518-10.25,1.9A28.745,28.745,0,0,1,551.078,137.509Z"></path>
      </g>
      <path d="M573.581,106.471c.144,6.482-2.113,13.089-7.246,16.2-6.093,3.691-10.924,4.807-18.493,6.291-10.328,2.025-12.1-8.813-14.517-19.611-2.428-10.841-3.854-22.7-.516-27.3,6.662-9.178,31.517-9.067,36.912,3.041C572.511,91.354,573.444,100.3,573.581,106.471Z" fill="#EDA59F"></path>
      <path d="M520.106,79.854c-1.017-5.184,3.769-14.942,23.275-6.605l.02.008a49.844,49.844,0,0,1,13.56-1.151c8.332.811,19.5,5.474,20.1,21.968.674,18.408-5.7,24.608-8.961,27.521-.83.742-1.147.332-1.677-.646a81.144,81.144,0,0,1-4.49-11.317,65.813,65.813,0,0,1-3.162-11.507c-.34-1.733-1.588-8.048-10.2-6.431-4.845.909-3,.746-8.161,1.758-.735.145-1.392.238-2,.3l0,0C520.583,97.253,521.122,85.038,520.106,79.854Z" fill="#0f1011"></path>
      <g>
        <circle cx="547.804" cy="105.034" r="1.449" fill="#0f1011"></circle>
        <circle cx="536.406" cy="106.314" r="1.449" fill="#0f1011"></circle>
        <path d="M533.216,103.78a.681.681,0,0,1-.138-1.347l3.757-.786a.68.68,0,1,1,.279,1.332l-3.757.786A.69.69,0,0,1,533.216,103.78Z" fill="#0f1011"></path>
        <path d="M550.237,101.869h-.029l-3.89-.166a.682.682,0,0,1-.651-.71.693.693,0,0,1,.709-.652l3.889.166a.681.681,0,0,1-.028,1.362Z" fill="#0f1011"></path>
      </g>
      <path d="M555.883,107.063a6.143,6.143,0,1,0,12.209-1.371,6.041,6.041,0,0,0-6.79-5.418C556.979,100.976,555.505,103.692,555.883,107.063Z" fill="#EDA59F"></path>
      <g opacity="0.15">
        <path d="M543.039,114.159a.5.5,0,0,0-.044-.988l-3.067-.321,1.14-4.9a.5.5,0,1,0-.974-.227l-1.268,5.452a.5.5,0,0,0,.435.611l3.629.38A.492.492,0,0,0,543.039,114.159Z"></path>
      </g>
      <path d="M549.342,116.362s-5.14,1.582-9.071,1.018c0,0,.707,3.451,4.927,2.978S549.342,116.362,549.342,116.362Z" fill="#fff"></path>
    </g>
    <path d="M474.266,246.389l-11.034-18.806,44.551-26.141L519.969,153.3l21.138,5.349-13.3,52.567a10.9,10.9,0,0,1-5.051,6.729Z" fill="#fff"></path>
    <rect x="350.284" y="523.561" width="21" height="24.533" transform="translate(-40.12 29.318) rotate(-4.409)" fill="#EDA59F"></rect>
    <path d="M324.653,552.557a4.109,4.109,0,0,1-4.077-4.427h0a4.109,4.109,0,0,1,2.659-3.53l24.442-8.186a3.463,3.463,0,0,1,2.873.319,19.1,19.1,0,0,0,11.468,3.4,17.035,17.035,0,0,0,8.82-3.222,1.546,1.546,0,0,1,2.527,1.2v11.952a2.677,2.677,0,0,1-2.689,2.678Z" fill="#c1d8ed"></path>
    <path d="M409.323,336.048h67.826a0,0,0,0,1,0,0v55.435a0,0,0,0,1,0,0H371.236a0,0,0,0,1,0,0V374.135A38.087,38.087,0,0,1,409.323,336.048Z" transform="translate(848.385 727.53) rotate(-180)" fill="#55affc"></path>
    <path d="M339.687,536.171,324.513,374.824a18.5,18.5,0,0,1,18.419-20.233h68.521v37h-48.2l13.271,141.116Z" fill="#55affc"></path>
    <path d="M290.264,540.482l-35.809-9.309,47.137-181.344A18.5,18.5,0,0,1,319.5,335.983H420.54v37H333.8Z" fill="#55affc"></path>
    <path d="M391.422,336.932c4.19,9.63,86.52,13.63,87.62-3.31.7-10.78-8.8-20.19-8.8-41.2s19.33-47.84,3.58-63.59c-4.56-4.56-12.46-7.52-22.08-7.53-.72,5.61-34.79,5.63-35.05.13-1.3.02-2.31.05-2.94.07-33.169,1.43-18.59,39.19-18.27,66.92C395.862,320.892,387.1,327.012,391.422,336.932Z" fill="#2f3235"></path>
    <path d="M416.692,221.432c.26,5.5,3.26,13.59,12.48,14.19,12.31.82,21.85-8.71,22.57-14.32h-.04C439.6,221.3,423.762,221.322,416.692,221.432Z" fill="#EDA59F"></path>
    <path d="M415.175,330.471l49.772-26.214L458.5,246.74l21.42-1.94,4.42,63.926.042.566a8.888,8.888,0,0,1-5.338,8.75l-51.97,22.491a6.405,6.405,0,0,1-.977.882,16.378,16.378,0,0,1-6.369,2.986c-3.455.8-8.758,1.889-10.468,1.483-1.379-.328-.5-1.671.629-2.861-9.126.059-20.068.03-20.317-1.494C388.742,336.442,407.346,331.591,415.175,330.471Z" fill="#EDA59F"></path>
    <rect x="458.784" y="240.626" width="21.805" height="20.769" transform="translate(-20.728 43.392) rotate(-5.176)" fill="#2f3235"></rect>
    <g>
      <path d="M450.518,270.422c-.39.1-.81.2-1.27.3l-5.23-11.98c3.44-1.81,9.23-4.66,11.29-4.58.91.03.98.65.7,1.45,4.38-1.21,8.43-1.56,9.75,1.56C468.038,262.592,455.138,269.182,450.518,270.422Z" fill="#EDA59F"></path>
      <path d="M449.248,270.722a105.686,105.686,0,0,1-11.36,1.37s-1.63-8.83,3.45-11.9l.01-.01c.12-.07.24-.14.37-.21.451-.25,1.27-.69,2.3-1.23Z" fill="#EDA59F"></path>
    </g>
    <path d="M384.059,302.277A10.9,10.9,0,0,1,373.9,287.4l20.055-51.275,20.307,7.942L403.791,270.85l38.216-16.705,8.733,19.979-62.317,27.24A10.883,10.883,0,0,1,384.059,302.277Z" fill="#2f3235"></path>
    <path d="M576.045,267.962l-.514,1.551c-.174.54-.354.971-.53,1.648l-1.068,3.788-1,4.059-.967,4.191c-1.283,5.621-2.485,11.432-3.675,17.246-2.3,11.676-4.482,23.5-6.577,35.35-2.141,11.851-4.134,23.754-6.208,35.656l-6.1,35.765.215-2.51-.931,33.114c-.241,11.038-.549,22.076-.72,33.117q-.327,16.558-.489,33.12l-.1,16.563-.045,8.282.024,8.283-37-.631.306-8.277.237-8.278.469-16.557q.377-16.558.639-33.118c.2-11.039.273-22.081.408-33.122l.2-33.126a15.168,15.168,0,0,1,.118-1.794l.1-.717,4.766-35.792c1.5-11.958,3.051-23.919,4.489-35.926l4.477-36.179c.763-6.09,1.537-12.179,2.459-18.419l.708-4.7.794-4.807c.276-1.638.61-3.36.918-5.038.133-.8.384-1.815.587-2.735l.651-2.82Z" fill="#55affc"></path>
    <polygon points="609.813 245.202 612.773 294.907 527.283 293.903 533.736 249.898 609.813 245.202" fill="#55affc"></polygon>
    <polygon points="611.952 284.148 612.311 291.727 612.748 299.538 613.674 315.235 615.641 346.736 619.741 409.809 628.201 535.992 591.333 539.107 578.771 413.18 572.616 350.177 569.615 318.627 568.163 302.79 567.458 294.832 566.804 286.631 611.952 284.148" fill="#55affc"></polygon>
    <path d="M530.286,256.111c4.96,9.257,82.77,6.632,82.487-10.341-.18-10.8-5.843-19.5-7.554-40.441s14.2-48.086-2.78-62.5a28.449,28.449,0,0,0-21.451-6.876c-.261,5.65-34.207,8.444-34.913,2.984-1.3.126-2.3.228-2.925.309-32.953,4.128-15.346,40.575-12.768,68.2C533.414,239.762,525.172,246.576,530.286,256.111Z" fill="#2f3235"></path>
    <path d="M546.075,138.936c.706,5.46,4.346,13.28,13.595,13.136,12.325-.194,21.057-10.47,21.318-16.12l-.031,0C568.888,136.941,553.1,138.251,546.075,138.936Z" fill="#EDA59F"></path>
    <path d="M548.544,138.065l-6.018,220.992h-34.51s10.166-129.344,11.252-147.3c1.731-28.645-.527-55.173.966-59.566C524.929,138.362,548.544,138.065,548.544,138.065Z" fill="#fff"></path>
    <g>
      <rect x="481.95" y="247.924" width="0.194" height="19.552" transform="translate(92.543 -125.791) rotate(16.426)" fill="#2f3235"></rect>
      <path d="M510.217,244.834s-12.6,7.645-15.974,7.268-6.628-10.246-6.628-10.246l3.646-5.51s-5.963-.316-5.547-2.516c.171-.9,1.256-1.27,5.532-1.2,4.874.077,12.484-.556,12.484-.556Z" fill="#EDA59F"></path>
      <g>
        <polygon points="485.46 255.486 490.657 234.975 491.358 232.185 486.542 231.023 485.832 233.809 480.656 254.263 485.46 255.486" fill="#fdb754"></polygon>
        <polygon points="486.793 248.03 490.866 231.952 491.416 229.765 487.641 228.854 487.084 231.038 483.027 247.072 486.793 248.03" fill="#fdb754"></polygon>
        <polygon points="485.307 232.094 491.966 233.52 492.266 232.103 485.619 230.681 485.307 232.094" fill="#fff"></polygon>
      </g>
      <path d="M489.789,236.878c-3.111,2.147-6.312,4.5-7.848,8.108-.956,1.936-2.007,8.979,1.859,5.525,1.159-3.022,2.763-6,5.656-7.742,1.641-1.358,5.118-2.545,3.558-5.193A2.33,2.33,0,0,0,489.789,236.878Z" fill="#EDA59F"></path>
      <rect x="482.355" y="252.023" width="0.941" height="6.065" transform="translate(873.824 636.231) rotate(-163.574)" fill="#fdb754"></rect>
    </g>
    <path d="M617.345,252.115c-3.954-27.549-5.009-94.3-5.816-98.694-4.2-22.886-36.991-17.715-36.991-17.715l.647,41.806-15.543,30.4L501.174,230.5l7.858,20.339,62.351-24.088a10.911,10.911,0,0,0,4.513-3.287L577.988,358.7l48.814-.342S629.085,333.9,617.345,252.115Z" fill="#fff"></path>
    <g opacity="0.56">
      <path d="M611.39,317.481V294.907H585.755v22.574C585.755,321.121,611.39,321.121,611.39,317.481Z" fill="#dee8f5"></path>
    </g>
    <g opacity="0.56">
      <path d="M540.087,317.481V294.907H514.452v22.574C514.452,321.121,540.087,321.121,540.087,317.481Z" fill="#dee8f5"></path>
    </g>
  </g>
  <g>
    <g>
      <rect x="234.329" y="118.382" width="73.918" height="75.176" transform="translate(542.577 311.94) rotate(-180)" fill="#c1d8ed"></rect>
      <g>
        <rect x="237.926" y="118.382" width="75.176" height="75.176" transform="translate(551.027 311.94) rotate(-180)" fill="#dee8f5"></rect>
        <rect x="243.108" y="123.565" width="64.81" height="64.81" transform="translate(551.027 311.94) rotate(-180)" fill="#fff"></rect>
      </g>
    </g>
    <g>
      <rect x="273.484" y="132.707" width="4.162" height="27.682" fill="#dee8f5"></rect>
      <rect x="263.326" y="153.147" width="4.162" height="27.682" transform="translate(235.913 -145.191) rotate(52.426)" fill="#dee8f5"></rect>
      <rect x="283.642" y="153.147" width="4.162" height="27.682" transform="translate(592.303 42.363) rotate(127.574)" fill="#dee8f5"></rect>
      <path d="M270.4,151.6v22.742a5.14,5.14,0,0,1-5.14,5.14H254.583a4.426,4.426,0,0,1-4.409-4.9c.84-7.638,3.756-22.018,13.851-26.977A4.435,4.435,0,0,1,270.4,151.6Z" fill="#dee8f5"></path>
      <path d="M280.9,151.6v22.742a5.141,5.141,0,0,0,5.141,5.14h10.672a4.427,4.427,0,0,0,4.41-4.9c-.841-7.638-3.756-22.018-13.851-26.977A4.436,4.436,0,0,0,280.9,151.6Z" fill="#dee8f5"></path>
    </g>
  </g>
</svg>